<svg width="533" height="526" viewBox="0 0 533 526" fill="none" xmlns="http://www.w3.org/2000/svg">
<rect opacity="0.01" x="7" width="526" height="526" fill="white"/>
<circle cx="142.5" cy="239.5" r="142.5" fill="#45DA5C"/>
<circle cx="383.5" cy="239.5" r="142.5" fill="#45DA5C"/>
<rect x="142" y="97" width="243" height="285" fill="#45DA5C"/>
<path d="M92.5625 272.062V283H61.5625V272.062L68.0625 271.125L97 192H115.688L144.438 271.125L150.938 272.062V283H119.938V272.062L126.25 270.938L122.25 258.438H90.25L86.25 270.938L92.5625 272.062ZM106.062 211.062L105.125 214L94.5625 245H117.938L107.312 213.812L106.438 211.062H106.062ZM180.812 284.312C175.396 284.312 170.792 282.917 167 280.125C163.125 277.375 160.167 273.521 158.125 268.562C156.083 263.562 155.062 257.729 155.062 251.062V249.75C155.062 242.667 156.104 236.438 158.188 231.062C160.271 225.729 163.208 221.583 167 218.625C170.833 215.625 175.417 214.125 180.75 214.125C184.458 214.125 187.708 214.875 190.5 216.375C193.292 217.833 195.708 219.917 197.75 222.625V198.375L188 196.5V185.5H216V270.188L224.75 272.062V283H200.188L198.812 274.75C196.688 277.875 194.146 280.25 191.188 281.875C188.271 283.5 184.812 284.312 180.812 284.312ZM186.25 270.125C191.25 270.125 195.083 268.021 197.75 263.812V235.125C195.125 230.583 191.333 228.312 186.375 228.312C183.333 228.312 180.854 229.208 178.938 231C177.021 232.792 175.604 235.312 174.688 238.562C173.771 241.771 173.312 245.5 173.312 249.75V251.062C173.312 256.979 174.312 261.646 176.312 265.062C178.312 268.438 181.625 270.125 186.25 270.125Z" fill="white"/>
<ellipse cx="383.5" cy="240" rx="126.5" ry="126" fill="white"/>
<path d="M341.355 284.413C335.23 284.413 329.647 283.267 324.605 280.975C319.563 278.683 315.23 275.454 311.605 271.288C307.938 267.163 305.126 262.308 303.167 256.725C301.209 251.1 300.23 244.954 300.23 238.288V236.913C300.23 230.288 301.209 224.183 303.167 218.6C305.126 212.975 307.917 208.079 311.542 203.913C315.167 199.746 319.501 196.517 324.542 194.225C329.584 191.933 335.167 190.788 341.292 190.788C347.459 190.788 353.084 191.933 358.167 194.225C363.251 196.517 367.626 199.746 371.292 203.913C374.959 208.079 377.772 212.975 379.73 218.6C381.73 224.183 382.73 230.288 382.73 236.913V238.288C382.73 244.954 381.73 251.1 379.73 256.725C377.772 262.308 374.959 267.163 371.292 271.288C367.626 275.454 363.251 278.683 358.167 280.975C353.126 283.267 347.522 284.413 341.355 284.413ZM341.355 270.225C346.522 270.225 350.813 268.892 354.23 266.225C357.647 263.558 360.209 259.829 361.917 255.038C363.667 250.246 364.542 244.663 364.542 238.288V236.788C364.542 230.496 363.667 224.954 361.917 220.163C360.167 215.413 357.563 211.704 354.105 209.038C350.688 206.371 346.417 205.038 341.292 205.038C336.209 205.038 331.98 206.35 328.605 208.975C325.23 211.642 322.688 215.35 320.98 220.1C319.313 224.85 318.48 230.413 318.48 236.788V238.288C318.48 244.579 319.334 250.163 321.042 255.038C322.751 259.829 325.292 263.558 328.667 266.225C332.042 268.892 336.272 270.225 341.355 270.225ZM424.167 272.163V283.1H389.792V272.163L398.542 270.288V228.35L388.855 226.475V215.475H415.542L416.355 225.163C418.605 221.704 421.376 219.017 424.667 217.1C428.001 215.183 431.792 214.225 436.042 214.225C442.751 214.225 448.001 216.371 451.792 220.663C455.584 224.954 457.48 231.683 457.48 240.85V270.288L466.23 272.163V283.1H431.355V272.163L439.167 270.288V240.913C439.167 236.371 438.272 233.163 436.48 231.288C434.688 229.371 432.022 228.413 428.48 228.413C423.355 228.413 419.459 230.538 416.792 234.788V270.288L424.167 272.163Z" fill="#2D2D2D"/>
</svg>
